<?xml version="1.0" encoding="utf-8"?>
<!-- Generator: Adobe Illustrator 25.2.1, SVG Export Plug-In . SVG Version: 6.00 Build 0)  -->
<svg version="1.1" id="Capa_1" xmlns="http://www.w3.org/2000/svg" xmlns:xlink="http://www.w3.org/1999/xlink" x="0px" y="0px"
	 viewBox="0 0 220.7 237.8" style="enable-background:new 0 0 220.7 237.8;" xml:space="preserve">
<style type="text/css">
	.st0{fill:#FFFFFF;}
</style>
<path class="st0" d="M139.1,177.1c6.7-2.1,13.3-4.3,20-6.3c13.4-4,26.9-7.1,40.8-6.6c1.6,0.1,2.2-0.7,2.4-2.4
	c0.2-3.8,0.7-7.6,0.8-11.4c0.5-22,0.9-44,1.3-66c0-0.8-0.1-1.7-0.2-2.9c-4,1.6-7.8,3.1-11.5,4.7c-0.5,0.2-0.9,1.5-1,2.3
	c-0.3,8.8-0.5,17.5-0.8,26.3c-0.4,12.8-0.8,25.5-1.2,38.3c-0.1,4.1-0.2,3.7-3.6,4.2c-6.2,0.9-12.4,2.2-18.5,4
	c-13.7,4.4-27.3,9.4-41,14.1c-0.1,0-0.3-0.1-1-0.3c4.4-3.4,8.5-6.7,12.7-9.8c8-5.8,16.1-11.2,25.2-14.4c1.7-0.6,3.5-1,5.3-1.2
	c1.7-0.2,2.5-0.9,2.5-3c0.2-16.1,0.6-32.2,0.8-48.3c0-1.4-0.2-2.8-0.3-4.6c-1.9,0.6-3.5,1.1-5.1,1.7c-18,6.8-36.1,13.7-54.2,20.4
	c-1.7,0.6-3.5,0.5-5.1-0.1c-18.7-7.4-37.3-14.9-55.9-22.3c-0.7-0.3-1.4-0.4-2.5-0.8c0,1.3,0,2.3,0,3.3c0.2,15.4,0.4,30.9,0.5,46.3
	c0,0.3,0,0.6,0,0.9c0.2,1.8,0,4,0.8,5.2c0.7,1.1,2.7,1.1,4.1,1.4c6.9,1.8,13.3,5.3,19.3,9.4c7.3,4.9,14.3,10.2,21.3,15.8
	c-20.8-6.9-41.3-15.3-63.2-18.2c-0.2-2.9-0.4-5.8-0.5-8.7c-0.5-19.8-1-39.6-1.5-59.4c-0.1-2.8-0.8-4.3-3.2-5s-4.9-1.9-7.4-2.9
	c-0.7-0.2-1.4-0.4-2.2-0.5c0,1.3,0,2.2,0,3.2c0.3,17.5,0.6,35.1,1,52.6c0.2,8.4,0.7,16.7,0.9,25.1c0.1,1.9,0.4,3.1,2.4,2.9
	c8.6-0.4,17.2,0.6,25.5,3c11.1,3,22.1,6.4,33.1,9.7c0.7,0.3,1.4,0.6,2,1c-25.5-2.8-50.5-6.6-76-6.2c-0.1-1.1-0.3-2.2-0.3-3.3
	c-0.6-10.7-1.1-21.3-1.7-31.9c-1.2-24.8-2.6-49.6-3.6-74.4c-0.4-9-0.2-18-0.2-27c0-1.4,0.2-2.4,1.8-2.2c5.4,1,10.4,3.8,14.1,7.9
	c0.4,0.7,0.6,1.5,0.5,2.4c0.2,6.8,0.2,13.5,0.5,20.3c0.1,2.7-0.4,4.3-2.7,5c-1,0.4-1.9,1-2.8,1.6c4.4,1.8,8.3,3.3,12.2,4.8
	c4.2,1.6,8.4,3.1,12.5,4.9c0.9,0.6,1.4,1.5,1.5,2.6c0.1,5.4,0.1,10.9,0,16.3c0,1.2-0.9,2.4-1.1,3.6c-0.3,1.9-1.1,4.4-0.4,5.6
	c2.3,3.7,1.3,7.2,0.4,10.9c-0.5,2.2-1.3,4.2-2.1,6.8h10.8c-0.9-3.1-1.7-6.1-2.5-9.2c-0.7-2.7-1-5.3,0.7-7.8c1.5-2.1,0.8-4.4-0.4-6.6
	c-0.8-1.3-1.2-2.8-1.3-4.3c-0.2-5.1-0.1-10.2-0.1-15.8c4.7,1.7,9,3.3,13.3,5c10.9,4.3,21.8,8.6,32.6,12.9c6.9,2.7,13.9,5.4,20.9,8
	c1,0.4,2,0.4,3,0.1c19.3-7.1,38.5-14.3,57.7-21.5c12.5-4.7,25-9.3,37.4-14c0.7-0.3,1.4-0.6,2.1-1c-0.2-0.5-0.2-0.8-0.4-0.8
	c-4.1-2-4.1-2-4-7.2c0.1-6.3,0.2-12.6,0.1-18.9c0-2.5,0.6-4.3,2.5-5.4c3.4-2,6.8-4,10.3-5.8c1-0.3,2.1-0.5,3.2-0.4
	c0.1,0.7,0.2,1.4,0.3,2.2c-0.4,19.8-0.5,39.6-1.3,59.4c-0.9,23.5-2.4,46.9-3.6,70.4c-0.3,6.8-0.3,6.5-6.1,6.7
	c-11.7,0.5-23.3,1.3-35,2.2c-9,0.7-17.9,1.9-26.8,2.9c-2.9,0.3-5.8,0.8-8.6,1.2L139.1,177.1z"/>
<path class="st0" d="M63.7,46.8C63.4,31.2,63,16,62.7,0c2.2,1.1,3.9,1.9,5.6,2.8c1.4,0.8,2.8,1.6,4.1,2.6c3,2.3,6.9,4.2,8.5,7.4
	c1.5,2.9,0.4,7.6,0.5,11.5c0,3.7,0,7.4,0,11.4c0.9-0.2,1.8-0.5,2.7-0.8c8-3.4,16-7,24.1-10.3c1.5-0.6,3.1-0.6,4.6,0
	c8.6,3.7,17.1,7.6,25.6,11.4c0.3,0.1,0.7,0.1,1,0.1c0.1-0.7,0.2-1.4,0.2-2.1c0-6,0.1-12,0-18c0-2.2,0.4-3.8,2-5.1
	c5.1-4.4,10.5-8.3,17-10.9c-0.3,16-0.6,31.5-0.9,47.6c-6.5-2.9-12.5-5.5-18.4-8.2c-8.8-4-17.6-7.9-26.4-12c-1.5-0.8-3.4-0.8-4.9,0
	c-13.5,6-27,11.9-40.5,17.9C66.3,45.8,65.2,46.2,63.7,46.8z"/>
<path class="st0" d="M212.8,213c1.3,1.2,2.8,2.2,3.8,3.6c3.5,5.2,2.4,15.2-4,18.3c-2.4,1.2-4.9,1.8-7.6,2c-5.7,0.3-11.4,0-17.2,0.1
	c-1.9,0-2.4-0.7-2.4-2.8c0.1-13.4,0-26.9,0-40.3c0-1.4-0.1-2.8,1.7-2.7c7,0.1,14.1-0.1,21.1,0.5c7.8,0.6,11.8,10.4,7.4,17.6
	C214.9,210.7,213.9,211.9,212.8,213z M196.5,217.4c0,1.5,0,2.7,0,3.8c0,8,0,8,6.9,7c2.4-0.4,4-2.5,4-5.4c0-2.6-1.7-5.1-3.9-5.4
	C201.2,217.2,199.1,217.4,196.5,217.4z M200.6,199.9c-0.9-0.1-1.8-0.1-2.7,0c-0.5,0.1-1.2,0.6-1.3,0.9c0,2.8-0.4,5.8,0.4,8.4
	c0.2,0.8,3.4,0.5,5.2,0.6c0.5,0,1-0.1,1.4-0.5c1-1.3,2.3-2.5,2.6-4C206.7,201.5,204.9,199.9,200.6,199.9L200.6,199.9z"/>
<path class="st0" d="M26.9,191.3c3.2,0,6-0.1,8.7,0.1c0.8,0.3,1.4,1,1.6,1.8c0,10.5,0.3,21-0.3,31.4c-0.4,6.8-4.7,10.7-10.2,12.2
	c-5.2,1.5-10.9,1.2-15.9-0.9c-5.1-2.2-8.2-7.4-8.2-13.8c0-9.3,0.1-18.7-0.1-28c0-2.4,0.7-3,2.6-2.8c1.9,0.2,3.8,0.2,5.6,0
	c1.9-0.2,2.4,0.6,2.4,2.7c-0.1,8.3,0,16.6,0,24.9c0,1.1,0.1,2.3,0.2,3.4c0.7,5.1,3,7.2,7.4,6.8c3.8-0.3,6.2-3.4,6.2-8.3
	c0-8.6,0-17.1,0-25.7L26.9,191.3z"/>
<path class="st0" d="M146.3,237c-3.2,0-6.3,0.1-9.4-0.1c-0.5,0-1.2-0.8-1.6-1.4c-0.4-0.8-0.6-1.6-0.8-2.4c-1.6-5.7-1.6-5.7-6.7-5.7
	c-2.2,0-4.4,0.1-6.6,0c-1.5-0.1-2.3,0.5-2.8,2.4c-1.9,7.3-2,7.3-8.4,7.2h-4c0.9-3,1.6-5.6,2.3-8.2c3.5-11.7,7.1-23.4,10.6-35.2
	c0.5-1.8,1.2-2.6,3-2.5c3.3,0.2,6.5,0,9.8,0.2c1,0.1,1.9,0.8,2.3,1.7c4.2,14.3,8.2,28.6,12.3,42.9
	C146.4,236.3,146.4,236.7,146.3,237z M126.6,199.4c-0.4,0.7-0.8,1.5-1.1,2.3c-1.2,5.3-2.5,10.6-3.6,15.9c0.1,0.8,0.6,1.5,1.3,1.9
	c1.9,0.1,3.9,0.2,5.8,0.1c1.7,0,2-1,1.6-2.8C129.3,211.2,128.1,205.6,126.6,199.4z"/>
<path class="st0" d="M176.1,209.2c0.1,0.3,0.2,0.7,0.3,1c0,8.7,1,6.8-5.7,7c-2.6,0.1-5.2,0.1-7.9,0c-1.3,0-1.9,0.7-1.9,2.2
	c0.1,10.8-1.2,8.5,6.9,8.8c3.3,0.1,6.7,0.1,10,0c1.8-0.1,2.5,0.5,2.4,2.7c-0.2,7.1,0.7,5.9-5,6c-7.4,0.1-14.7,0-22.1,0h-2.8v-45.5
	c0.8-0.1,1.5-0.2,2.3-0.2c8,0,16,0.2,24,0.1c2.2,0,2.8,0.8,2.8,3.3c-0.1,5.6,0.5,5.1-4.3,5.1c-3.9,0-7.8,0.1-11.8,0
	c-1.7,0-2.5,0.6-2.5,2.8c0.2,8-0.7,6.6,5.7,6.8C169.7,209.3,172.9,209.2,176.1,209.2z"/>
<path class="st0" d="M42,214c0-6.6,0.1-13.1,0-19.7c0-2.4,0.7-3.1,2.7-3c5.6,0.2,11.3,0,16.9,0.3c6.3,0.4,10.5,5.1,11,11.4
	c0.9,10.7-4.1,15.4-9.5,16.6c-2.3,0.4-4.5,0.6-6.8,0.6c-3.3,0.1-3.3,0-3.4,4c0,3.4-0.1,6.9,0,10.3c0,2-0.6,2.7-2.3,2.6
	c-2-0.2-3.9-0.2-5.9,0c-2,0.2-2.8-0.6-2.7-3c0.1-3.3,0-6.7,0-10S41.9,217.4,42,214L42,214z M52.8,205.7L52.8,205.7c0,1.3,0,2.7,0,4
	c-0.1,1.9,0.7,2.6,2.2,2.4c0.8-0.1,1.6,0,2.4-0.1c3.1-0.5,4.7-3.3,4.3-7.6c-0.3-3.4-2.5-5-6.6-4.8c-3.8,0.1-1.8,3.5-2.3,5.5
	C52.8,205.3,52.8,205.5,52.8,205.7z"/>
<path class="st0" d="M191.7,13.4v48.8c-1.1-0.3-1.8-0.5-2.4-0.8c-4.9-2.2-9.9-4.5-14.8-6.6c-1.4-0.6-1.8-1.5-1.8-3.1
	c0.1-8.7,0-17.3,0.1-26c-0.1-1,0.2-2,0.7-2.9c4.5-5.8,10.1-9.2,16.8-9.7C190.6,13.2,191.2,13.3,191.7,13.4z"/>
<path class="st0" d="M29.2,13C37,13.5,43,17,47.9,23.2c0.5,0.9,0.7,2,0.6,3c0,8.2,0,16.4,0,24.6c0,2-0.5,3-2.3,3.7
	c-5.5,2.2-11,4.7-17,7.3L29.2,13z"/>
<path class="st0" d="M75.5,199.9c-1.2-8.4-1-8.6,5.7-8.6c9,0.1,18,0,27-0.1c1.8,0,2.8,0.4,2.6,2.8c-0.1,1.8,0,3.6,0,5.8
	c-3.4,0-6.6,0.1-9.7-0.1c-2.2-0.1-2.8,0.8-2.8,3.3c0.1,10.2,0,20.4,0.1,30.6c0,2.6-0.7,3.6-2.9,3.4c-1.8-0.2-3.6-0.2-5.4,0
	c-2,0.2-2.5-0.8-2.5-3c0.1-10.3,0-20.6,0.1-30.9c0-2.6-0.6-3.6-2.9-3.4C81.6,200.1,78.6,199.9,75.5,199.9z"/>
<path class="st0" d="M98.7,175.8c0.1-4.2,3.7-8,8-8.8c8.4-1.5,13.9,1.5,16.2,8.9C114.8,168.8,106.8,169.6,98.7,175.8z"/>
<path class="st0" d="M110.9,68.4c-2.7,0-4.9-1.4-4.9-3.2s2.2-3,4.8-3h0.3c1.9,0.2,4,0.1,4.4,2.9C115.7,66.9,113.5,68.3,110.9,68.4z"
	/>
</svg>
